<?xml version="1.0" standalone="no"?>
<!DOCTYPE svg PUBLIC "-//W3C//DTD SVG 20010904//EN"
 "http://www.w3.org/TR/2001/REC-SVG-20010904/DTD/svg10.dtd">
<svg version="1.0" xmlns="http://www.w3.org/2000/svg"
 width="895.000000pt" height="907.000000pt" viewBox="0 0 895.000000 907.000000"
 preserveAspectRatio="xMidYMid meet">
<metadata>
Created by potrace 1.16, written by Peter Selinger 2001-2019
</metadata>
<g transform="translate(0.000000,907.000000) scale(0.100000,-0.100000)"
fill="#000000" stroke="none">
<path d="M4089 8955 c-3 -2 -61 -7 -129 -10 -68 -4 -127 -8 -131 -11 -4 -2
-76 -18 -161 -35 -208 -42 -435 -101 -576 -150 -64 -23 -129 -42 -143 -44 -29
-3 -130 -39 -239 -85 -41 -17 -86 -34 -100 -36 -14 -3 -50 -19 -80 -36 -30
-17 -77 -42 -105 -56 -27 -13 -57 -28 -65 -33 -8 -5 -37 -21 -64 -37 -26 -15
-82 -49 -124 -75 -41 -27 -86 -53 -100 -58 -36 -14 -302 -197 -427 -294 -119
-93 -421 -386 -488 -475 -23 -30 -73 -89 -111 -130 -154 -167 -298 -373 -441
-630 -54 -96 -114 -199 -135 -230 -20 -30 -44 -68 -53 -85 -19 -35 -120 -284
-150 -370 -11 -33 -29 -82 -38 -110 -67 -188 -175 -617 -180 -715 -1 -19 -8
-62 -15 -95 -30 -145 -36 -273 -32 -750 3 -462 4 -482 24 -530 12 -27 33 -108
48 -180 14 -71 35 -161 46 -200 11 -38 30 -114 41 -169 11 -54 36 -145 55
-201 19 -57 34 -111 34 -120 0 -27 102 -279 168 -415 208 -430 473 -804 818
-1157 l139 -143 53 12 c29 6 55 8 59 4 4 -3 -7 -20 -23 -37 l-29 -31 80 -75
c284 -267 545 -444 921 -628 106 -52 194 -98 195 -102 2 -5 29 -18 59 -30 30
-12 91 -38 135 -57 44 -20 95 -36 113 -36 17 0 32 -4 32 -9 0 -9 168 -60 401
-120 362 -94 825 -148 1104 -130 72 4 168 10 214 13 45 3 89 11 97 17 11 9 20
9 38 -1 38 -20 211 4 516 71 634 139 1104 342 1645 710 249 169 473 367 728
642 258 278 423 489 511 652 15 28 47 84 71 125 25 41 45 80 45 86 0 6 32 76
71 155 136 275 248 563 304 789 9 36 27 93 41 127 80 203 127 635 126 1158 0
182 -2 364 -5 405 -11 174 -124 674 -194 860 -21 57 -62 173 -163 465 -15 45
-43 105 -62 135 -20 30 -39 66 -43 80 -4 14 -20 45 -35 70 -15 25 -41 70 -58
100 -17 31 -46 76 -64 100 -18 25 -33 52 -34 61 -3 36 -274 421 -378 537 -37
40 -54 52 -77 52 -25 0 -29 3 -20 17 7 14 -8 36 -82 117 -51 55 -123 125 -161
155 -39 31 -108 92 -156 136 -47 44 -117 106 -155 137 -124 100 -378 263 -517
331 -74 37 -144 77 -154 88 -53 59 -286 163 -566 254 -62 20 -164 55 -226 77
-232 81 -784 162 -1187 173 -99 3 -241 7 -316 10 -75 2 -138 3 -140 0z m1178
-1452 c45 -21 50 -35 22 -72 -17 -24 -31 -31 -55 -31 -32 0 -104 34 -104 50 0
13 70 70 86 70 9 0 32 -7 51 -17z m2493 -419 c58 -35 69 -88 28 -146 -23 -33
-24 -105 -2 -151 15 -31 15 -36 -3 -73 -15 -34 -23 -39 -54 -42 -33 -3 -39 1
-59 34 -20 32 -22 41 -12 68 22 61 15 94 -28 138 -54 55 -52 79 9 139 52 53
76 59 121 33z m-6679 -370 c20 -42 20 -46 5 -69 -32 -48 -126 -25 -126 32 0
12 16 41 36 63 42 46 51 44 85 -26z m55 -1705 c45 -14 91 -63 109 -119 25 -75
19 -92 -37 -106 -38 -9 -48 -9 -48 0 0 7 -7 36 -16 65 -18 62 -58 88 -117 77
-41 -8 -62 -30 -70 -74 -11 -57 16 -103 108 -181 168 -145 207 -204 209 -316
2 -113 -50 -181 -156 -204 -135 -30 -251 57 -272 206 -6 42 -6 42 31 52 62 17
70 15 78 -26 21 -112 67 -154 145 -133 47 13 60 33 60 95 0 62 -16 88 -96 164
-163 153 -183 174 -199 207 -11 23 -17 62 -17 104 -1 107 49 178 139 199 40 9
98 5 149 -10z m344 -144 l0 -155 44 31 c27 20 61 33 89 36 41 5 49 2 76 -24
25 -25 30 -39 36 -104 3 -41 5 -168 3 -284 l-3 -210 -57 -3 -58 -3 0 251 c0
239 -1 251 -21 271 -21 21 -44 19 -86 -9 -23 -14 -23 -16 -23 -264 l0 -249
-57 3 -58 3 -3 420 c-1 231 0 426 3 432 3 8 25 13 60 13 l55 0 0 -155z m1327
6 c1 -79 4 -145 6 -148 3 -2 21 7 42 21 69 47 141 46 172 -1 16 -24 18 -60 21
-311 l3 -283 -58 3 -58 3 -5 257 c-3 141 -8 260 -12 263 -24 25 -108 -6 -108
-39 0 -12 -2 -124 -3 -251 l-2 -230 -57 -3 -58 -3 0 436 0 436 58 -3 57 -3 2
-144z m1393 -101 l5 -245 74 118 c40 65 79 121 86 123 7 3 35 4 64 2 l51 -3
-66 -110 c-37 -60 -68 -115 -71 -122 -2 -6 12 -56 33 -110 20 -54 50 -132 65
-173 16 -41 29 -81 29 -87 0 -9 -17 -13 -54 -13 l-53 0 -52 142 c-68 184 -63
178 -90 135 -18 -30 -21 -49 -21 -150 0 -114 0 -117 -24 -123 -13 -3 -38 -4
-57 -2 l-34 3 -3 65 c-2 44 -6 60 -12 50 -8 -12 -15 -9 -42 18 -27 26 -31 35
-21 50 7 11 21 16 42 14 l31 -2 0 110 c0 106 -1 110 -21 107 -12 -1 -26 6 -33
16 -15 23 4 53 33 49 21 -3 21 -2 21 193 l0 196 58 -3 57 -3 5 -245z m844 233
c10 -35 176 -824 176 -838 0 -11 -13 -15 -54 -15 -60 0 -59 -1 -70 75 -4 22
-11 64 -17 93 l-11 53 -86 -3 -86 -3 -21 -105 -21 -105 -58 -3 -58 -3 7 28 c4
15 27 125 51 243 94 449 122 579 129 591 4 5 30 9 60 9 42 0 55 -4 59 -17z
m2574 -397 c2 -404 2 -409 22 -391 13 12 30 16 53 13 34 -4 34 -3 25 24 -16
46 -7 70 34 84 41 14 45 12 63 -40 15 -44 56 -71 91 -59 30 10 46 43 21 43 -8
0 -25 8 -38 19 l-23 18 22 28 22 28 -47 41 c-25 22 -55 47 -66 55 -10 7 -32
34 -48 59 -77 122 0 261 138 248 63 -5 93 -24 121 -75 32 -57 29 -87 -9 -100
-44 -15 -46 -15 -53 21 -17 88 -116 92 -116 5 0 -27 14 -45 94 -122 122 -117
148 -179 112 -266 -27 -65 -75 -91 -163 -91 -35 0 -61 -3 -59 -7 3 -3 -26 -52
-62 -106 -61 -90 -72 -102 -115 -117 l-48 -18 -16 37 c-20 47 -19 107 1 155
23 53 21 56 -26 60 l-43 3 -3 433 -2 433 57 -3 58 -3 3 -409z m-5534 160 c40
-17 73 -57 85 -105 5 -20 11 -143 13 -274 l3 -238 -49 3 c-48 3 -50 4 -60 42
l-11 39 -14 -26 c-24 -45 -60 -61 -130 -58 -37 2 -89 63 -96 114 -16 102 44
191 166 247 l71 33 -4 64 c-4 69 -14 83 -60 83 -33 0 -58 -33 -58 -77 0 -40
-9 -46 -66 -37 l-46 7 4 48 c6 57 45 114 92 135 40 17 118 18 160 0z m386 8
c44 -9 95 -62 107 -113 11 -40 10 -42 -19 -57 -38 -20 -54 -13 -62 27 -16 81
-116 78 -116 -4 0 -27 14 -45 89 -117 109 -103 131 -138 131 -205 0 -112 -94
-179 -215 -153 -54 12 -111 69 -121 123 -7 41 -3 48 42 63 37 12 49 6 57 -29
11 -45 40 -72 77 -72 39 0 60 23 60 67 0 25 -17 47 -104 131 -113 108 -133
144 -123 218 12 92 93 141 197 121z m948 -14 c73 -33 79 -60 84 -357 l4 -253
-47 0 c-48 0 -59 9 -59 51 0 26 -7 24 -36 -11 -57 -67 -157 -54 -199 26 -20
38 -19 127 1 170 22 46 85 96 163 130 l63 28 -5 60 c-6 64 -22 86 -63 86 -28
0 -47 -23 -59 -74 l-10 -41 -49 3 c-27 1 -52 4 -54 7 -10 10 11 96 31 126 46
67 148 89 235 49z m514 -9 l33 -29 3 -287 3 -286 -58 3 -58 3 -5 260 c-3 143
-7 261 -8 261 -17 11 -51 9 -78 -3 l-34 -17 -2 -250 -3 -251 -57 -3 -58 -3 0
311 0 310 60 0 c57 0 60 -1 60 -25 l0 -25 53 30 c67 38 107 39 149 1z m1651
15 c72 -30 90 -99 85 -327 -3 -155 -6 -179 -25 -215 -12 -23 -33 -48 -47 -58
-37 -24 -97 -23 -140 2 l-35 21 -3 -117 -3 -117 -57 -3 -58 -3 0 411 0 410 60
0 c53 0 60 -2 60 -20 0 -18 2 -18 36 5 41 28 79 31 127 11z m496 -8 c45 -28
71 -137 71 -297 -1 -220 -44 -311 -150 -313 -28 0 -52 7 -71 21 -15 11 -31 21
-34 21 -3 0 -5 -54 -5 -120 l0 -121 -57 3 -58 3 0 405 0 405 58 3 c51 3 57 1
57 -17 0 -19 2 -19 43 5 45 27 106 28 146 2z m421 6 c84 -34 99 -94 101 -404
l1 -205 -48 -3 c-52 -4 -64 6 -64 52 l0 29 -32 -37 c-88 -100 -218 -43 -218
97 0 103 38 154 164 213 l78 37 -5 61 c-6 64 -22 86 -62 86 -29 0 -51 -27 -59
-72 -8 -47 -15 -51 -72 -42 l-46 7 5 38 c9 66 38 112 87 137 52 26 114 28 170
6z m475 -49 l0 -60 -46 3 c-38 3 -51 -1 -77 -23 l-32 -27 0 -229 0 -229 -55 0
-55 0 0 310 0 310 55 0 55 0 0 -37 0 -37 33 31 c43 41 67 53 97 50 24 -2 25
-5 25 -62z m342 39 c48 -35 67 -88 71 -196 l4 -98 -121 0 -121 0 0 -90 c0 -83
2 -93 25 -115 28 -29 42 -31 72 -10 16 11 23 30 28 70 l7 55 56 0 55 0 -6 -56
c-12 -115 -66 -166 -177 -166 -75 0 -116 23 -150 83 -23 42 -25 52 -25 204 0
88 4 181 8 207 9 54 46 104 92 124 44 21 147 13 182 -12z m-3351 -1050 c39
-18 89 -83 75 -97 -13 -13 -173 12 -193 30 -42 37 -2 100 55 89 16 -3 44 -13
63 -22z m4069 -1449 c39 -13 80 -25 93 -25 12 0 22 -3 22 -7 0 -5 -49 -36
-109 -69 l-109 -62 -21 22 c-25 27 -51 76 -51 97 0 9 9 28 21 43 26 33 62 34
154 1z m-1153 -86 c13 -6 31 -21 41 -35 l18 -24 -85 -98 c-117 -134 -149 -156
-201 -136 -20 8 -45 56 -45 86 1 42 52 122 86 133 17 6 50 27 73 48 43 38 72
45 113 26z"/>
<path d="M4977 4800 c-13 -50 -57 -297 -57 -318 0 -20 5 -22 65 -22 55 0 65 3
64 18 0 9 -15 91 -33 182 -23 114 -35 157 -39 140z"/>
<path d="M1989 4411 c-41 -40 -49 -54 -49 -85 0 -21 5 -46 10 -57 13 -23 57
-25 88 -3 20 14 22 23 22 105 0 60 -4 89 -11 89 -7 0 -34 -22 -60 -49z"/>
<path d="M3344 4441 c-68 -42 -101 -119 -70 -166 21 -32 59 -33 91 0 22 22 25
32 25 105 0 44 -3 80 -7 80 -5 0 -22 -9 -39 -19z"/>
<path d="M5459 4676 l-34 -11 -3 -200 c-2 -179 -1 -201 15 -212 27 -20 77 -16
99 8 17 19 19 38 19 194 0 220 -12 248 -96 221z"/>
<path d="M5950 4683 c-8 -3 -25 -9 -37 -15 -23 -11 -23 -14 -23 -208 l0 -197
25 -11 c14 -7 39 -12 56 -12 49 0 59 40 59 227 0 106 -4 166 -13 182 -13 26
-43 41 -67 34z"/>
<path d="M6422 4430 c-52 -38 -76 -81 -66 -123 3 -18 11 -38 16 -44 16 -19 52
-16 82 8 24 19 26 26 26 105 0 46 -4 84 -8 84 -5 0 -28 -13 -50 -30z"/>
<path d="M7169 4674 c-7 -9 -15 -48 -17 -86 l-4 -69 63 3 64 3 -3 64 c-2 73
-20 101 -62 101 -15 0 -34 -7 -41 -16z"/>
</g>
</svg>
